<?xml version="1.0" encoding="UTF-8" standalone="no"?>
<!-- Created with Inkscape (http://www.inkscape.org/) -->

<svg
   width="1024"
   height="1024"
   viewBox="0 0 270.93333 270.93334"
   version="1.1"
   id="svg5"
   inkscape:version="1.1.2 (0a00cf5339, 2022-02-04)"
   sodipodi:docname="earth.svg"
   xmlns:inkscape="http://www.inkscape.org/namespaces/inkscape"
   xmlns:sodipodi="http://sodipodi.sourceforge.net/DTD/sodipodi-0.dtd"
   xmlns="http://www.w3.org/2000/svg"
   xmlns:svg="http://www.w3.org/2000/svg">
  <sodipodi:namedview
     id="namedview7"
     pagecolor="#505050"
     bordercolor="#eeeeee"
     borderopacity="1"
     inkscape:pageshadow="0"
     inkscape:pageopacity="0"
     inkscape:pagecheckerboard="0"
     inkscape:document-units="mm"
     showgrid="false"
     units="px"
     inkscape:zoom="0.77771465"
     inkscape:cx="616.55004"
     inkscape:cy="495.04018"
     inkscape:window-width="2560"
     inkscape:window-height="1358"
     inkscape:window-x="2560"
     inkscape:window-y="0"
     inkscape:window-maximized="1"
     inkscape:current-layer="layer2" />
  <defs
     id="defs2" />
  <g
     inkscape:label="Layer 1"
     inkscape:groupmode="layer"
     id="layer1" />
  <g
     inkscape:groupmode="layer"
     id="layer2"
     inkscape:label="Layer 2">
    <ellipse
       style="display:inline;opacity:1;fill:#000080;stroke:none;stroke-width:0;stroke-miterlimit:4;stroke-dasharray:none"
       id="path858"
       cx="135.59019"
       cy="137.36032"
       rx="132.97102"
       ry="130.56015" />
    <path
       style="fill:#008000;stroke:#0000ff;stroke-width:0;stroke-linecap:butt;stroke-linejoin:miter;stroke-opacity:1;stroke-miterlimit:4;stroke-dasharray:none"
       d="m 61.69526,68.035132 c -1.274442,0.867209 -2.826202,1.426049 -3.823332,2.601629 -3.455799,4.074272 -2.960608,10.342645 -2.960608,15.271134 0,1.331989 -0.205925,2.679993 0,3.99597 0.558234,3.567374 2.596729,7.950816 3.358457,11.396785 0.317857,1.43794 0.106415,2.95849 0.415126,4.39842 0.543594,2.53554 1.449498,4.97989 2.131853,7.48165 0.568376,2.08389 0.953003,4.21981 1.620049,6.27424 0.276199,0.85066 2.355832,5.22447 2.66899,6.82999 0.114104,0.58501 -0.06029,1.19511 0,1.78808 0.09749,0.95887 0.386556,1.89266 0.471853,2.85269 0.12301,1.3845 -0.162415,2.78943 0,4.16986 0.517355,4.39721 0.772895,9.51879 3.366598,13.36079 0.617095,0.91409 1.494258,1.62671 2.163249,2.50354 0.936956,1.22804 4.984538,7.40292 5.613733,8.11746 0.989857,1.12412 2.316269,1.9013 3.429638,2.90324 3.574708,3.21692 7.132129,5.68987 11.139093,8.32018 1.576459,1.03484 2.987312,2.3161 4.60134,3.2913 1.072784,0.64819 2.280972,1.04783 3.368754,1.67051 2.151177,1.23141 4.287547,2.98467 6.590497,4.00037 1.37051,0.60446 2.85851,0.91244 4.23381,1.50591 1.38105,0.59595 2.60266,1.54416 4.01752,2.05471 1.32161,0.47691 2.7596,0.53762 4.12168,0.88235 0.28331,0.0717 5.29476,2.24851 6.26117,1.38979 2.00243,-1.77929 2.71792,-3.78535 2.27164,-6.39747 -0.12805,-0.7495 -0.66782,-1.37896 -0.84761,-2.11776 -1.12294,-4.61446 -5.09077,-9.42221 -8.76139,-12.48791 -1.07017,-0.89381 -2.36262,-1.46257 -3.37257,-2.48022 -1.11875,-1.12728 -2.00144,-2.62215 -3.1347,-3.75631 -0.0802,-0.0802 -0.26077,0.0809 -0.34021,0 -0.65581,-0.66819 -0.96667,-1.78657 -1.42212,-2.54376 -1.09717,-1.82407 -2.62579,-3.61847 -3.55381,-5.58466 -0.36906,-0.78194 -0.4601,-1.67055 -0.77908,-2.47422 -0.31292,-0.78839 -0.74099,-1.52604 -1.11149,-2.28906 -0.43436,-1.16767 -0.85627,-2.34004 -1.30309,-3.503 -0.62524,-1.62732 -2.659586,-5.68906 -1.89191,-7.59062 0.87712,-2.17264 4.89269,-1.70734 6.66102,-1.70734 4.83134,0 7.45425,1.4864 11.88845,3.34776 1.37171,0.57581 2.85783,0.85967 4.21196,1.47571 0.42381,0.19281 0.69775,0.63029 1.10783,0.85081 2.34872,1.26303 5.51182,2.82856 7.98421,3.71733 2.59331,0.93223 1.54667,0.20647 3.61145,0.44401 1.75119,0.20146 3.43724,0.73758 5.1722,0 3.04494,-1.2945 2.57389,-2.163 2.57389,-5.28043 0,-1.14823 0.27793,-2.3306 0,-3.44469 -0.72981,-2.92543 -2.94421,-6.07284 -4.28356,-8.72669 -0.59614,-1.18121 4.88097,-8.29319 5.97686,-9.23746 1.23001,-1.05982 2.85953,-1.36751 4.15391,-2.22355 0.6497,-0.42967 1.1003,-1.10745 1.70767,-1.59513 1.59431,-1.28013 3.44412,-2.27293 5.02685,-3.57924 4.07147,-3.3604 7.68863,-7.21012 11.60962,-10.73558 0.55962,-0.503169 1.17804,-0.936813 1.76706,-1.40522 0.7347,-0.76345 1.41764,-1.580346 2.20412,-2.29035 1.58597,-1.431764 3.25612,-1.976697 4.37865,-3.915402 0.82767,-1.429446 0.68599,-3.3713 1.16074,-4.926634 0.19105,-0.625875 1.49677,-3.8289 1.65701,-4.50192 0.69556,-2.921363 1.08507,-6.154849 1.08507,-9.146508 0,-0.43107 0.33262,-2.933663 0,-3.395665 -2.35587,-3.272338 -7.38227,-3.07666 -9.66298,-6.427933 -0.17393,-0.25558 -0.85251,-3.266215 -1.02577,-3.714528 -1.75274,-4.535255 -1.19208,-4.381548 -5.24662,-8.556826 -6.3763,-6.566196 -9.15787,-8.78037 -17.20632,-12.941519 -2.64459,-1.367288 -6.51865,-1.162744 -8.99852,-2.8526 -1.77484,-1.209427 -2.38597,-3.362209 -3.73488,-4.859806 -0.0619,-0.06873 -0.23912,0.08416 -0.2775,0 -0.0842,-0.184605 0.099,-0.431562 0,-0.608661 -0.10083,-0.180409 -0.41335,0 -0.62003,0 -0.55964,0 -1.13095,-0.11367 -1.67893,0 -4.70736,0.976463 -9.41022,1.999303 -14.04887,3.262471 -5.76014,1.568564 -11.41845,3.489601 -17.12967,5.227868 -2.425414,0.738201 -4.81299,1.618086 -7.280211,2.201529 -4.61759,1.091959 -4.601916,-5.93475 -7.066253,-9.096301 -0.88382,-1.133869 -2.775567,0.855279 -4.004898,1.600624 -2.884863,1.749099 -5.594736,3.772299 -8.360052,5.704861 -3.627499,2.535102 -1.914623,2.165924 -5.105668,2.781596 -0.604543,0.116639 -2.68406,-0.567105 -2.894412,-0.340207 -0.65751,0.709245 -1.214985,1.505199 -1.808424,2.268858 -3.519292,4.528749 3.099266,2.749717 5.774867,5.117441 0.347083,0.307147 2.067782,3.317002 1.536327,3.997621 -0.353065,0.45216 -0.912691,0.695611 -1.357418,1.057995 -2.504183,2.040504 -5.496642,3.423089 -6.123048,6.737988 -0.0521,0.275735 -0.710375,1.684467 -0.340207,2.05377 1.124733,1.122092 2.472743,2.016098 3.84551,2.815867 0.924639,0.538689 4.153307,0.821286 4.979834,1.789393 0.836395,0.979665 -1.73971,1.909734 -2.721899,2.743163 -0.621953,0.527754 -1.311582,0.978194 -1.895054,1.548204 -0.626033,0.611587 0.913887,-0.0232 -0.168857,0.69092 -1.305645,0.861145 -4.733076,-1.374344 -5.578187,-1.761207 z"
       id="path1098" />
    <path
       style="fill:#008000;stroke:#0000ff;stroke-width:0.265;stroke-linecap:butt;stroke-linejoin:miter;stroke-opacity:1;stroke-miterlimit:4;stroke-dasharray:none"
       d="m 154.43326,261.20526 c 0.13457,-4.00931 -0.0511,-3.97021 1.45725,-8.89537 1.70674,-5.57293 1.77739,-1.95745 4.01852,-8.39053 1.89139,-5.42914 -6.2781,-8.7749 -9.71141,-10.49155 -1.01152,-0.50576 -4.05074,-3.46353 -4.56662,-4.22205 -0.55655,-0.81834 -0.28183,-3.12101 -0.35067,-3.9494 -0.30279,-3.64382 0.0473,-9.88448 -1.79812,-12.84633 -7.64213,-12.26508 -4.22296,-6.44276 -11.14117,-13.65271 -1.04506,-1.08912 -0.34021,-4.71397 -0.34021,-5.92888 0,-4.98152 0.15631,-9.67674 3.42033,-13.6158 0.55514,-0.66995 0.9139,-1.52493 1.5953,-2.06595 0.74894,-0.59465 1.76964,-0.74605 2.58195,-1.25071 1.06347,-0.66071 1.88098,-1.71499 3.02182,-2.23075 5.66198,-2.55974 11.86724,-2.76017 17.85742,-3.73112 3.88332,-0.62945 7.94397,-1.78079 11.7803,-2.41625 2.42461,-0.40161 7.3159,-0.18473 9.71673,0 4.3473,0.33452 8.5225,2.20118 12.77816,3.05127 3.95489,0.79001 8.36139,1.562 12.37857,1.9012 3.28201,0.27713 6.66435,-0.34889 9.93932,0 2.6404,0.28129 5.58946,1.05981 8.05274,1.74786 1.53905,0.42988 3.33192,0.49053 4.54162,1.53462 0.19196,0.16568 0.2268,0.45361 0.3402,0.68041 0.38733,0.3873 0.74618,0.80535 1.16199,1.1619 0.81478,0.69868 4.73129,3.5533 5.34811,4.7508 0.55443,1.07637 -1.15237,5.8552 -0.68648,6.40028 0.78747,0.9213 4.36893,1.87709 5.46905,2.84044 1.32463,1.15994 -2.39124,4.89959 -2.96384,5.58672 -1.60455,1.92547 -2.54739,2.47197 -1.1075,4.89788 0.0829,0.13962 1.22537,0.90734 1.02676,1.29822 -2.55577,5.03 -6.36442,8.62256 -9.30517,13.68636 -0.62328,1.07326 0.0889,3.63157 -0.3402,4.20441 -9.66859,11.83298 3.61326,-4.89842 -4.72419,7.14642 -3.29905,4.76603 -0.91433,0.64381 -3.25122,2.83845 -0.18485,0.17359 -0.16015,0.50188 -0.34021,0.68041 -0.0819,0.0812 -0.26446,-0.0815 -0.34602,0 -0.45561,0.45562 -0.66477,2.34238 -0.6785,2.35512 -2.15794,2.00184 -5.0139,4.62719 -7.81029,5.72715 -11.01099,4.33115 -1.25413,-0.0173 -9.77321,4.45055 -0.0927,0.0486 -0.26045,-0.0899 -0.31404,0 -0.30751,0.51597 -0.37944,1.14877 -0.68041,1.66859 -2.69994,4.66319 -18.17388,12.81996 -23.47963,13.48594 -0.56259,0.0706 -1.13911,-0.0759 -1.70103,0 -1.52083,0.20531 -1.99105,1.17917 -3.34001,1.5213 -0.57414,0.14561 -1.18742,-0.0574 -1.77695,0 -1.59963,0.15572 -3.1933,0.52177 -4.77966,0.68041 -2.59914,0.25991 -5.64382,-0.50646 -8.21495,0 -0.6388,0.12583 -0.93258,0.33381 -1.62686,0.33381"
       id="path1397" />
    <path
       style="fill:#008000;stroke:#0000ff;stroke-width:0.264583px;stroke-linecap:butt;stroke-linejoin:miter;stroke-opacity:1"
       d="m 216.59497,40.67588 c 4.14122,9.734195 18.38237,15.538383 12.88565,27.683967 -1.46305,3.232759 -7.02348,8.946057 -5.44222,13.7585 1.99857,6.082549 7.74298,10.901011 12.91587,14.404795 0.11551,0.07824 0.31027,-0.088 0.41853,0 0.25019,0.203369 0,0.644837 0,0.967253 0,0.970833 0,1.941666 0,2.912495 0,1.25701 0.29577,2.54931 0,3.77103 -0.61905,2.55706 -2.89141,4.5715 -2.14116,7.51084 0.67737,2.65379 3.54622,2.89113 4.57152,5.03478 0.33036,0.69069 0.19186,1.52074 0.34636,2.27062 0.95062,4.61396 0.77957,9.50545 3.74484,13.47528 2.1732,2.90941 5.35603,5.0101 8.01104,7.44618 1.0782,0.98929 2.40087,1.76525 3.23478,2.96767 0.39273,0.56626 0.074,3.83566 0,4.42155 -0.18721,1.4832 -1.01416,2.84851 -1.22461,4.30134 -0.81265,5.61017 1.80846,11.05502 4.59927,15.71499 0.0282,0.047 0.35033,1.46607 0.74129,1.31 0.11671,-0.0466 -0.0294,-0.25482 0,-0.377 0.3812,-1.58528 0.86383,-3.14542 1.2291,-4.73444 2.50991,-10.91904 1.26504,-4.24337 1.62279,-14.92686 0.27239,-8.13451 1.187,-16.38803 0.0266,-24.50691 -0.70374,-4.92368 -2.26643,-9.67678 -3.49126,-14.47614 -1.34476,-5.26926 -2.71265,-10.563763 -4.30001,-15.753993 -1.43133,-4.680061 -3.7199,-9.23371 -5.8487,-13.609847 -1.09826,-2.257665 -2.83759,-4.172987 -4.18422,-6.257102 -1.73527,-2.685589 -3.36354,-5.454861 -5.11099,-8.144205 -2.92219,-4.497287 -5.58613,-9.325187 -9.17385,-13.340779 -0.62438,-0.698838 -1.50724,-1.123251 -2.17812,-1.777579 -0.0125,-0.0122 0.0118,-0.648922 0,-0.673457 -0.88195,-1.837783 -2.29304,-4.125656 -4.03231,-5.402247 -0.89093,-0.653933 -2.07028,-0.804103 -3.01808,-1.372505 -6.53135,-3.916915 -0.4236,-0.531151 -4.20208,-2.598226 z"
       id="path1498" />
    <path
       style="opacity:0.810253;fill:#e6e6e6;stroke:#0000ff;stroke-width:0.264583px;stroke-linecap:butt;stroke-linejoin:miter;stroke-opacity:1"
       d="m 85.121979,19.988878 c 0.518115,0 1.061403,-0.159527 1.55435,0 2.981937,0.965017 4.248526,2.845054 6.491576,4.629537 0.436684,0.347408 0.879742,1.181209 1.419297,1.42209 1.215509,0.542656 2.755016,1.289561 4.126412,1.635321 1.843916,0.464894 3.803236,0 5.704846,0 1.70118,0 9.87939,0.235879 12.69569,-0.388982 0.52755,-0.117049 4.56533,-2.641861 4.56862,-2.643128 3.27413,-1.263873 12.04636,-4.203662 16.16369,-2.494402 1.41881,0.589002 2.60817,1.624142 3.9235,2.417781 5.86986,3.541743 11.78538,7.092764 17.07418,11.501749 10.52614,8.775059 -9.64928,-6.426859 6.28352,6.320006 2.43713,1.949805 5.3799,3.19237 7.86536,5.080191 2.91684,2.215483 5.75324,4.676145 8.63347,6.951615 1.53209,1.210392 4.24225,4.779668 6.68735,4.142419 1.85723,-0.484036 2.80108,-7.089396 3.12199,-8.146727 0.29187,-0.961654 0.87207,-1.84073 1.0315,-2.832978 0.18967,-1.180455 0,-2.391188 0,-3.586782 0,-0.911037 -0.3745,-1.902605 0,-2.733111 0.22638,-0.502026 1.10748,0.08156 1.65211,0 1.87332,-0.280525 3.16798,-1.155494 4.32251,-2.630972 3.91512,-5.003474 2.71022,-6.389079 -2.97141,-10.57131 -1.75114,-1.289011 -4.12118,-3.27776 -6.03517,-4.266167 -1.4603,-0.596648 -2.9206,-1.193296 -4.3809,-1.789944 -0.1134,-0.140216 -0.18468,-0.32936 -0.34021,-0.420648 -0.58891,-0.345685 -1.38253,0.150451 -2.04863,0 -1.27145,0.730009 -1.08261,-0.781167 -1.69729,-1.023235 -0.44866,-0.176691 -0.95303,-0.177094 -1.40451,-0.346446 -6.58843,-2.471322 -13.02174,-5.524091 -19.96651,-6.931992 -2.18431,-0.44282 -4.41279,-0.636678 -6.60554,-1.0356 -1.09843,-0.199835 -2.15558,-0.611025 -3.26211,-0.759598 -0.79128,-0.106245 -1.60475,0.112657 -2.39514,0 -4.0192,-0.572867 -8.00656,-1.8804983 -11.9877,-2.5781458 -4.15483,-0.7280841 -9.17605,-0.340206 -13.33026,-0.340206 -2.99967,0 -6.54354,-0.3930962 -9.54221,0 -5.25238,0.688534 -9.49015,2.6196598 -14.319146,4.3977728 -2.660364,0.979589 -5.536211,1.625707 -8.043267,3.032433 -0.636085,0.356911 -1.085575,0.989729 -1.71349,1.360824 -0.292457,0.17284 -1.060775,0.337117 -1.153263,0.522197 -0.982265,1.965644 0.391197,2.56556 -2.123215,2.106438 z"
       id="path1566" />
    <path
       style="opacity:0.509006;fill:#ececec;stroke:#0000ff;stroke-width:0.264583px;stroke-linecap:butt;stroke-linejoin:miter;stroke-opacity:1"
       d="m 14.348378,110.2116 c 0.244484,1.26978 0.668579,3.20187 0.308395,4.4627 -0.286273,1.0021 -1.013921,1.82824 -1.393549,2.79883 -0.811522,2.0748 -1.830284,9.61525 0.334558,11.31175 3.54415,2.77741 8.62619,4.8505 12.92717,6.03841 1.021409,0.28211 2.106092,0.23691 3.160694,0.34021 0.10377,0.0102 0.293841,-0.10253 0.312799,0 0.288816,1.56207 0.317068,1.37474 -0.338214,2.03002 -0.102971,0.10297 0.186404,-0.23018 0.308893,-0.30893 2.775116,-1.78433 5.7728,-3.2467 8.375168,-5.2747 4.079351,-3.17899 7.821049,-6.77242 11.606215,-10.29657 3.911605,-3.64186 -2.7124,0.33014 -2.824641,1.56459 -0.0095,0.10447 0.244274,0.0777 0.314706,0 0.835784,-0.92253 1.729068,-1.82839 2.329616,-2.91877 1.677003,-3.04484 3.712017,-8.06511 3.010442,-11.77522 -1.06853,-5.65065 -7.582997,0.19929 -6.543071,-9.112158 0.196744,-1.761643 0.753898,-3.466867 1.012645,-5.220475 0.21767,-1.475229 0.321048,-2.96608 0.414874,-4.454327 0.04418,-0.700756 -0.223837,-2.591784 0,-3.487134 0.314892,-1.259567 1.275882,-3.019454 0.680414,-4.431318 -0.874006,-2.072275 -5.408941,-3.948478 -5.947712,-4.29909 -0.937678,-0.610204 -1.895287,-1.201608 -2.752299,-1.920719 -0.158663,-0.133133 0,-0.41424 0,-0.621358 0,-3.113503 3.14991,-3.790577 5.049523,-5.69019 0.103378,-0.103378 -0.207566,0.205962 -0.31014,0.310139 -2.623148,2.664132 -5.645602,4.987491 -7.86702,7.994782 -3.64341,4.932347 -3.641018,8.005493 -6.170639,12.759478 -0.531609,0.999067 -1.382813,1.799299 -1.955271,2.775533 -0.608142,1.037082 -1.069702,2.440098 -0.764053,3.662698 0.178615,0.714457 0.788731,1.2328 0.680413,1.299361 -3.319368,2.0398 -9.261436,3.632378 -10.739668,7.749038 -0.521129,1.45126 0.252172,5.79946 -0.340206,6.6193 -0.26417,0.3656 -0.701895,0.28682 -1.367885,0.28682 -1.50841,0 -1.239227,-0.50679 -1.512157,-2.1927 z"
       id="path1636" />
    <path
       style="opacity:0.572969;fill:#e6e6e6;stroke:#000080;stroke-width:0.264583px;stroke-linecap:butt;stroke-linejoin:miter;stroke-opacity:1"
       d="m 60.019895,204.92061 c 9.104736,7.76112 19.095058,14.41666 28.69385,21.55726 1.376392,1.02391 2.885133,1.88115 4.163291,3.02534 2.043437,1.82925 3.464348,4.25289 5.222861,6.35752 2.122283,2.53999 4.272513,5.45937 6.808033,7.62332 0.69358,0.59195 1.51257,1.02752 2.19605,1.6311 2.99967,2.64898 6.04168,5.66512 10.11241,6.53668 1.16316,0.24903 5.50051,1.5486 6.74599,0.91392 2.35479,-1.19996 2.36746,-16.06229 1.95776,-18.45421 -1.64164,-9.58442 -10.41592,-16.81244 -17.23531,-22.74543 -5.09004,-4.42842 -10.358719,-8.6418 -15.76394,-12.66396 -0.877411,-0.6529 0.02006,0.0187 -0.767125,-1.02498 -2.519317,-3.34024 -3.294184,-6.70122 -7.566514,-8.60389 -0.946952,-0.42172 -1.452859,-0.3402 -2.399136,-0.3402 -1.156888,0 -2.35114,-0.29165 -3.470666,0 -2.586168,0.6737 -5.236377,3.22631 -6.77331,4.76305 -0.607182,0.6071 -0.534649,1.65719 -1.020619,2.36506 -0.296717,0.4322 -0.847112,0.62987 -1.196618,1.02062 -0.340254,0.3804 -0.392846,0.94921 -0.676177,1.37372 -0.561451,0.8412 -1.161222,0.6084 -1.713572,1.71913 -0.577619,1.16155 -1.061172,1.44016 -1.701032,2.39995 -0.749531,0.17132 -0.179832,0.69987 -0.340207,1.02062 -0.359926,0.71985 -2.048068,1.50152 -2.751965,1.75626 -0.224624,0.0813 -0.392854,0.36197 -0.630743,0.34021 -0.656447,-0.0601 -1.262208,-0.38073 -1.893311,-0.57109 z"
       id="path1739" />
    <path
       style="opacity:0.816101;fill:#ececec;stroke:#000000;stroke-width:0.264583px;stroke-linecap:butt;stroke-linejoin:miter;stroke-opacity:1"
       d="m 196.90031,64.128657 c -4.00715,2.536568 -2.7984,1.119592 -5.1472,7.396081 -0.48963,1.308401 -0.68173,2.71024 -1.07228,4.051553 -0.51261,1.76053 -1.23919,3.461769 -1.63658,5.251831 -0.48903,2.202874 -0.51357,6.589903 -0.84379,8.764836 -0.771,5.078119 -3.55983,9.618904 -5.57785,14.249142 -0.37887,0.86931 -0.61075,1.80621 -1.06929,2.63627 -0.55763,1.00943 -1.69417,1.13057 -2.4704,1.71274 -0.20286,0.15214 -0.1609,0.50111 -0.3402,0.68041 -0.0802,0.0802 -0.25433,-0.0741 -0.34021,0 -0.53362,0.46022 -0.9232,1.06977 -1.44687,1.54127 -0.37133,0.33433 -0.98149,0.32796 -1.33566,0.68041 -0.27297,0.27165 -0.60367,1.44101 -0.68041,1.67269 -0.54577,1.64752 0.039,1.74263 2.08484,2.49322 5.91275,2.16926 12.67841,0.95203 17.67511,-2.91852 0.92545,-0.71688 4.80954,-5.19461 5.52826,-5.90961 3.39766,-3.38005 3.48359,-1.93319 4.54353,-6.590019 0.91581,-4.023579 -0.30442,-8.171735 0.37202,-12.155288 0.29237,-1.721774 1.22239,-3.277857 1.67055,-4.965798 0.31299,-1.178873 0.21109,-2.479641 0.72194,-3.587218 0.28924,-0.627095 0.84374,-1.095894 1.21356,-1.679104 0.26756,-0.421945 0.35118,-0.964952 0.6937,-1.328682 1.9975,-2.121149 5.21165,0.06624 5.44023,2.62065 0.23231,2.596118 -0.31054,5.387972 -0.41396,7.927588 -0.16426,4.033436 0.60147,8.322429 -0.46978,12.276619 -0.97367,3.594012 -2.21734,6.998452 -2.87323,10.704822 -0.55018,3.10904 -1.00712,6.45139 -1.33391,9.59546 -0.10592,1.01899 0.1533,2.0605 0,3.07344 -0.56108,3.70732 -1.60518,10.21067 -0.89603,13.8968 0.90155,4.68624 3.05565,7.4461 7.05512,9.46258 0.65628,0.33089 1.58963,0.54771 2.34581,0.34021 5.65133,-1.55079 5.06854,-7.86914 5.06854,-12.4608 0,-4.96893 1.06729,-9.95696 0.54362,-14.92439 -0.1675,-1.58882 -0.76229,-3.10328 -1.10766,-4.66313 -0.43035,-1.94362 -0.47203,-3.96211 -0.93225,-5.89887 -0.15464,-0.65081 -0.62751,-1.19646 -0.78656,-1.8462 -0.10834,-0.44259 0.0995,-0.9223 0,-1.36697 -0.13457,-0.60164 -0.56782,-1.11179 -0.68963,-1.71615 -0.28294,-1.40378 0.15846,-2.99991 0,-4.427121 0.36619,-1.041141 -0.52638,-1.737932 -0.68731,-2.629456 -0.31315,-1.734833 -0.17114,-3.684707 -0.34021,-5.443299 -0.17116,-1.780445 -0.79424,-3.505632 -1.02991,-5.270185 -0.26854,-2.010535 0.2168,-4.124646 0,-6.141715 -0.37805,-3.517162 0.14252,-7.242776 -0.34021,-10.743819 -0.16678,-1.209588 -0.74466,-2.341941 -0.88274,-3.55514 -0.0816,-0.717262 0.13806,-1.457111 0,-2.165678 -0.26993,-1.385353 -2.43653,-7.706939 -3.09226,-9.111551 -0.16071,-0.34426 -2.08652,-2.911679 -2.28011,-3.255235 -0.17743,-0.314862 -0.1052,-0.758513 -0.34685,-1.027256 -1.01963,-1.13394 -3.13784,-1.360966 -4.42816,-0.690636 -0.95816,0.497763 -1.62413,1.424294 -2.46675,2.099439 -2.54759,2.041237 -3.5983,3.462142 -5.31896,5.955538 -0.99676,1.4444 0.15631,-0.07505 -0.34021,1.360826 -0.58121,1.680822 -0.77418,0.954358 -1.14387,2.511584 -0.28421,1.19715 -0.41322,2.267048 -0.79553,3.515831 z"
       id="path1807" />
  </g>
</svg>
